<svg xmlns="http://www.w3.org/2000/svg" width="79" height="79" viewBox="0 0 79 79">
  <g id="Group_1755" data-name="Group 1755" transform="translate(-2621 -1089.018)">
    <circle id="Ellipse_30" data-name="Ellipse 30" cx="39.5" cy="39.5" r="39.5" transform="translate(2621 1089.018)" fill="#fff"/>
    <g id="Group_1723" data-name="Group 1723" transform="translate(2622.714 1090.719)">
      <g id="Group_1685" data-name="Group 1685" transform="translate(13.405 7.941)">
        <path id="Path_2886" data-name="Path 2886" d="M199.458,176.168a29.776,29.776,0,0,0-48.043,0Z" transform="translate(-151.415 -163.987)" fill="#e50019" fill-rule="evenodd"/>
      </g>
      <g id="Group_1686" data-name="Group 1686" transform="translate(7.65 20.993)">
        <path id="Path_2887" data-name="Path 2887" d="M164.406,248.556a29.779,29.779,0,0,0,24.638-46.5H139.767a29.779,29.779,0,0,0,24.639,46.5Z" transform="translate(-134.629 -202.055)" fill="#002581" fill-rule="evenodd"/>
      </g>
      <g id="Group_1687" data-name="Group 1687" transform="translate(34.174 10.836)">
        <path id="Path_2888" data-name="Path 2888" d="M215.365,172.431l.793,2.457,2.582,0-2.091,1.513.8,2.454-2.086-1.522-2.086,1.522.8-2.454-2.092-1.513,2.582,0,.793-2.457Z" transform="translate(-211.99 -172.431)" fill="#fe0" fill-rule="evenodd"/>
      </g>
      <g id="Group_1688" data-name="Group 1688" transform="translate(35.661 25.082)">
        <path id="Path_2889" data-name="Path 2889" d="M218.155,213.983c-2.019.035-2.178,1.657-1.377,3.8.471,2.67.353,8.318.395,12.531h1.971c.1-4.933.077-11.426.46-12.415.994-3.025.185-3.939-1.45-3.917Z" transform="translate(-216.328 -213.983)" fill="#fff" fill-rule="evenodd"/>
      </g>
      <g id="Group_1689" data-name="Group 1689" transform="translate(26.383 33.558)">
        <path id="Path_2890" data-name="Path 2890" d="M189.344,246.286a2.874,2.874,0,0,0,2.253-1.3,7.934,7.934,0,0,1,1.155-3.163,3.107,3.107,0,0,1,1.7-1.935l3.755-1.184q.014,1,.029,1.993a20.144,20.144,0,0,1-6.469,4.419,7.732,7.732,0,0,0-.91,1.126,9.012,9.012,0,0,0-.325.91c-.022.151-.18.2-.253.043-.044-.26-.015-.425-.058-.685-.226.019-.561.009-.787.029a.135.135,0,0,1-.094-.252Z" transform="translate(-189.268 -238.705)" fill="#fff" fill-rule="evenodd"/>
      </g>
      <g id="Group_1690" data-name="Group 1690" transform="translate(31.05 36.14)">
        <path id="Path_2891" data-name="Path 2891" d="M203.342,247.158a.462.462,0,1,0-.462-.462.462.462,0,0,0,.462.462Z" transform="translate(-202.88 -246.234)" fill="#002581" fill-rule="evenodd"/>
      </g>
      <g id="Group_1691" data-name="Group 1691" transform="translate(31.302 32.832)">
        <path id="Path_2892" data-name="Path 2892" d="M211.81,236.588q.014,1.04.029,2.079c2.455.332,3.811,1.488,3.957,3.552.009,4.132-7.587,3.475-9.906,5.257a4.4,4.4,0,0,0-2.108,5.141,5.529,5.529,0,0,0,4.274,3.35q-.029-1.025-.058-2.05c-2.339-1.376-2.427-3.462-.491-4.476,1.9-.912,4.352-1.169,6.556-1.878,3-1.153,4.627-3.443,3.928-6.9-.613-2.368-3.081-3.906-6.181-4.072Z" transform="translate(-203.614 -236.588)" fill="#fff" fill-rule="evenodd"/>
      </g>
      <g id="Group_1692" data-name="Group 1692" transform="translate(36.476 45.691)">
        <path id="Path_2893" data-name="Path 2893" d="M218.707,274.425l1.661-.332-.043,9.877-1.444.578-.173-10.123Z" transform="translate(-218.707 -274.093)" fill="#fff" fill-rule="evenodd"/>
      </g>
      <g id="Group_1693" data-name="Group 1693" transform="translate(36.736 59.077)">
        <path id="Path_2894" data-name="Path 2894" d="M220.693,313.136l-1.227.737.174,7.856h1.039l.014-8.592Z" transform="translate(-219.465 -313.136)" fill="#fff" fill-rule="evenodd"/>
      </g>
      <g id="Group_1694" data-name="Group 1694" transform="translate(34.569 51.395)">
        <path id="Path_2895" data-name="Path 2895" d="M217.695,290.729q.014.867.029,1.733c.951.561,1.5,1.264,1.025,2.325-.6,1.121-4.9,1.579-5.429,3.1-.435,1.617-.071,2.72,1.227,3.22l-.014-1.935a1.8,1.8,0,0,1,1.5-1.358c2.35-.307,4.659-1.271,5.054-3.191.249-2.468-1.307-3.4-3.394-3.9Z" transform="translate(-213.145 -290.729)" fill="#fff" fill-rule="evenodd"/>
      </g>
      <g id="Group_1695" data-name="Group 1695" transform="translate(38.875 61.925)">
        <path id="Path_2896" data-name="Path 2896" d="M225.7,321.443q.007.469.014.939a3.267,3.267,0,0,1,1.718,1.906c.062.229.482.225.477-.188a3.123,3.123,0,0,0-2.209-2.657Z" transform="translate(-225.702 -321.443)" fill="#fff" fill-rule="evenodd"/>
      </g>
      <g id="Group_1696" data-name="Group 1696" transform="translate(0 8.243)">
        <path id="Path_2897" data-name="Path 2897" d="M118.324,214.636a37.4,37.4,0,0,1,7.953-49.42l.242.3a37.018,37.018,0,0,0-7.871,48.911Zm63.139-.473-.327-.2a37.018,37.018,0,0,0-8.6-48.787l.237-.3a37.4,37.4,0,0,1,8.692,49.3Zm-61.911-.824a35.67,35.67,0,0,1,8.143-47.037l.238.3a35.285,35.285,0,0,0-8.055,46.529Zm60.441-.095-.327-.2a35.284,35.284,0,0,0-8.2-46.5l.237-.3a35.67,35.67,0,0,1,8.289,47.011Zm-59.286-.577a34.336,34.336,0,0,1,7.775-45.287l.239.3a33.951,33.951,0,0,0-7.688,44.779Zm58.153-.131-.327-.2a33.949,33.949,0,0,0-7.889-44.743l.237-.3a34.334,34.334,0,0,1,7.979,45.251Zm-56.809-.771a32.717,32.717,0,0,1,7.469-43.143l.238.3a32.332,32.332,0,0,0-7.381,42.635Zm55.438-.086-.327-.2a32.332,32.332,0,0,0-7.513-42.612l.237-.3a32.718,32.718,0,0,1,7.6,43.119Z" transform="translate(-112.317 -164.868)" fill="#002581"/>
      </g>
      <g id="Group_1697" data-name="Group 1697" transform="translate(19.739 3.619)">
        <path id="Path_2898" data-name="Path 2898" d="M172.02,154.568l.921,1.976.826-.385a1.4,1.4,0,0,0,.812-.745.982.982,0,0,0-.073-.75,1.087,1.087,0,0,0-.552-.545,1.222,1.222,0,0,0-1.075.048l-.859.4Zm-.962-2.062.821,1.761.724-.338a1.466,1.466,0,0,0,.663-.536.807.807,0,0,0,.021-.812.9.9,0,0,0-.523-.506,1.6,1.6,0,0,0-1.168.179l-.539.251Zm1,4.818-2.164-4.639,2.275-1.06a1.876,1.876,0,0,1,1.455-.156,1.134,1.134,0,0,1,.676.591,1.027,1.027,0,0,1,.055.8,1.517,1.517,0,0,1-.527.695,1.832,1.832,0,0,1,1.044.006,1.09,1.09,0,0,1,.653.6,1.228,1.228,0,0,1,.01,1.077,2.237,2.237,0,0,1-1.151,1.007l-2.325,1.084Z" transform="translate(-169.89 -151.383)" fill="#002581"/>
      </g>
      <g id="Group_1698" data-name="Group 1698" transform="translate(37 0.289)">
        <path id="Path_2899" data-name="Path 2899" d="M223.312,143.906l1.832-2.074.733.024-2.256,2.551-.1,2.722-1.243-.041.094-2.557-2.139-2.862,1.467.049,1.612,2.188Z" transform="translate(-220.233 -141.669)" fill="#002581"/>
      </g>
      <g id="Group_1699" data-name="Group 1699" transform="translate(46.694 1.388)">
        <path id="Path_2900" data-name="Path 2900" d="M249.632,150.631l-1.124-.324,1.361-4.764-1.179-.34.094-.33,3.5,1.008-.094.33-1.2-.345-1.361,4.764Z" transform="translate(-248.508 -144.874)" fill="#002581"/>
      </g>
      <g id="Group_1700" data-name="Group 1700" transform="translate(49.99 3.189)">
        <path id="Path_2901" data-name="Path 2901" d="M259.285,155.152l2.637,1.426-.153.31-3.649-1.973,2.355-4.789,3.6,1.946-.153.311-2.587-1.4-.909,1.848,2.455,1.327-.152.31-2.455-1.327-.989,2.01Z" transform="translate(-258.121 -150.126)" fill="#002581"/>
      </g>
      <g id="Group_1701" data-name="Group 1701" transform="translate(55.246 4.099)">
        <path id="Path_2902" data-name="Path 2902" d="M274.867,152.782l.591.417-1.684.413-.324-.229,1.416-.6Z" transform="translate(-273.451 -152.782)" fill="#002581"/>
      </g>
      <g id="Group_1702" data-name="Group 1702" transform="translate(53.144 2.789)">
        <path id="Path_2903" data-name="Path 2903" d="M267.323,149.7l1.378-.745.56.295.2,1.573-.348-.183-.289-1.215-1.15.459-.349-.183Z" transform="translate(-267.323 -148.96)" fill="#002581"/>
      </g>
      <g id="Group_1704" data-name="Group 1704" transform="translate(27.71 0)">
        <g id="Group_1703" data-name="Group 1703">
          <path id="Path_2904" data-name="Path 2904" d="M193.584,142.426l-.227.076.454-1.4.361-.121,1.2.846-.227.076-1.012-.45Zm2.789,5.682a.338.338,0,0,1-.41-.2.339.339,0,0,1,.2-.41.324.324,0,0,1,.205.615Z" transform="translate(-193.282 -140.928)" fill="#002581"/>
          <path id="Path_2905" data-name="Path 2905" d="M196.135,148.069a.386.386,0,0,1-.172-.043.354.354,0,0,1-.164-.492.367.367,0,1,1,.446.517h0A.349.349,0,0,1,196.135,148.069Zm-.007-.648a.273.273,0,0,0-.089.015.27.27,0,0,0-.034.5.264.264,0,0,0,.208.02.276.276,0,0,0,.036-.508A.269.269,0,0,0,196.128,147.421Zm-2.99-4.945.491-1.513.407-.136.02.014,1.282.9-.336.112-.989-.439-.54.95Zm.567-1.438-.417,1.286.119-.04.565-.994,1.035.46.119-.04-1.106-.777Z" transform="translate(-193.138 -140.826)" fill="#002581"/>
        </g>
      </g>
      <g id="Group_1706" data-name="Group 1706" transform="translate(26.476 1.14)">
        <g id="Group_1705" data-name="Group 1705">
          <path id="Path_2906" data-name="Path 2906" d="M189.61,147.542a2.412,2.412,0,0,1,.458-2.109,3.379,3.379,0,0,1,2.085-1.2,3.064,3.064,0,0,1,2.259.318,2.664,2.664,0,0,1,1.236,1.795,2.6,2.6,0,0,1-.355,2.071,3.155,3.155,0,0,1-2.127,1.32,3.213,3.213,0,0,1-2.209-.27,2.423,2.423,0,0,1-1.292-1.68Zm2.594-2.951a1.8,1.8,0,0,0-1.42,1.119,2.982,2.982,0,0,0-.066,1.769,2.685,2.685,0,0,0,.786,1.459,1.821,1.821,0,0,0,1.678.423,1.632,1.632,0,0,0,1.288-1.2,3.074,3.074,0,0,0,.065-1.642,2.978,2.978,0,0,0-.71-1.439A1.655,1.655,0,0,0,192.2,144.592Z" transform="translate(-189.539 -144.151)" fill="#002581"/>
        </g>
      </g>
      <g id="Group_1707" data-name="Group 1707" transform="translate(9.475 58.896)">
        <path id="Path_2907" data-name="Path 2907" d="M139.952,315.688l3.276-3.08.636.677-1.327,3.017,3.038-1.2.6.637-3.276,3.08-.58-.617,2.639-2.481-3.747,1.484,1.667-3.757-2.679,2.5-.247-.263Z" transform="translate(-139.952 -312.609)" fill="#002581"/>
      </g>
      <g id="Group_1708" data-name="Group 1708" transform="translate(13.31 62.501)">
        <path id="Path_2908" data-name="Path 2908" d="M151.791,327.132l-.653-.538L154,323.123l.653.538-2.858,3.471Z" transform="translate(-151.137 -323.123)" fill="#002581"/>
      </g>
      <g id="Group_1709" data-name="Group 1709" transform="translate(14.758 63.312)">
        <path id="Path_2909" data-name="Path 2909" d="M155.662,329.3l-.3-.216,2.805-3.6.626.449.039,3.891,1.942-2.471.3.216-2.806,3.6-.313-.224-.04-4.515-2.254,2.871Z" transform="translate(-155.361 -325.487)" fill="#002581"/>
      </g>
      <g id="Group_1710" data-name="Group 1710" transform="translate(18.747 65.812)">
        <path id="Path_2910" data-name="Path 2910" d="M167.722,337.075l-.727-.434,2.3-3.861.727.434-2.3,3.861Z" transform="translate(-166.995 -332.78)" fill="#002581"/>
      </g>
      <g id="Group_1711" data-name="Group 1711" transform="translate(20.675 66.898)">
        <path id="Path_2911" data-name="Path 2911" d="M172.62,339.218l.4-.073a1.329,1.329,0,0,0,.2.557,1.008,1.008,0,0,0,.457.341.908.908,0,0,0,.633.027.74.74,0,0,0,.478-.41.841.841,0,0,0-.174-.962q-.4-.418-.788-.833a1.071,1.071,0,0,1-.09-1.155,1.281,1.281,0,0,1,.8-.686,1.613,1.613,0,0,1,1.163.069,1.63,1.63,0,0,1,.676.524,1.281,1.281,0,0,1,.277.759l-.359.046a1.193,1.193,0,0,0-.134-.55.949.949,0,0,0-.475-.406.755.755,0,0,0-.616-.013.848.848,0,0,0-.434.436.758.758,0,0,0,.227.848q.385.427.779.852a1.161,1.161,0,0,1,.07,1.2,1.3,1.3,0,0,1-.852.72,1.7,1.7,0,0,1-1.172-.068,2.094,2.094,0,0,1-.738-.486,1.315,1.315,0,0,1-.324-.736Z" transform="translate(-172.62 -335.946)" fill="#002581"/>
      </g>
      <g id="Group_1712" data-name="Group 1712" transform="translate(24.462 67.822)">
        <path id="Path_2912" data-name="Path 2912" d="M184.514,343.457l-.848-.276,1.45-3.975-.89-.289.1-.276,2.641.858-.1.275-.9-.294-1.45,3.976Z" transform="translate(-183.666 -338.642)" fill="#002581"/>
      </g>
      <g id="Group_1713" data-name="Group 1713" transform="translate(26.804 68.831)">
        <path id="Path_2913" data-name="Path 2913" d="M191.363,346.135l-.868-.244,1.389-4.305,1.991.561a1.281,1.281,0,0,1,.848.644,1.253,1.253,0,0,1,.055.986.949.949,0,0,1-.577.634,1.892,1.892,0,0,1-.962.048l.574,2.357-.955-.262L192.316,344l.057.016a1.713,1.713,0,0,0,.988.039.886.886,0,0,0,.577-.613.949.949,0,0,0-.016-.722,1.129,1.129,0,0,0-.771-.543l-.47-.132-1.319,4.092Z" transform="translate(-190.495 -341.586)" fill="#002581"/>
      </g>
      <g id="Group_1714" data-name="Group 1714" transform="translate(31.344 69.866)">
        <path id="Path_2914" data-name="Path 2914" d="M205.753,346.547l1.319-1.7.5.035-1.624,2.1-.163,2.284-.844-.06.153-2.145-1.356-2.448,1,.071,1.02,1.871Z" transform="translate(-203.737 -344.605)" fill="#002581"/>
      </g>
      <g id="Group_1715" data-name="Group 1715" transform="translate(36.633 70.075)">
        <path id="Path_2915" data-name="Path 2915" d="M220.075,347.6a3.234,3.234,0,0,0,.277,1.364,1.135,1.135,0,0,0,1.092.7,1.117,1.117,0,0,0,1.062-.723,3.137,3.137,0,0,0,.236-1.378,3.171,3.171,0,0,0-.285-1.363,1.151,1.151,0,0,0-1.1-.7,1.111,1.111,0,0,0-1.053.723,3.189,3.189,0,0,0-.228,1.377Zm-.911.014a2.38,2.38,0,0,1,.594-1.7,2.077,2.077,0,0,1,1.593-.7,2.13,2.13,0,0,1,1.625.659,2.546,2.546,0,0,1,.075,3.375,2.232,2.232,0,0,1-3.218.05,2.406,2.406,0,0,1-.669-1.68Z" transform="translate(-219.163 -345.212)" fill="#002581"/>
      </g>
      <g id="Group_1716" data-name="Group 1716" transform="translate(41.648 69.895)">
        <path id="Path_2916" data-name="Path 2916" d="M234.769,349.233l-.846.024-.131-4.494,2.58-.075.008.291-1.734.051.05,1.734,1.582-.046.008.291-1.581.046.064,2.178Z" transform="translate(-233.792 -344.688)" fill="#002581"/>
      </g>
      <g id="Group_1717" data-name="Group 1717" transform="translate(46.043 68.305)">
        <path id="Path_2917" data-name="Path 2917" d="M248.592,345.09l-.817.219-1.164-4.343.818-.219.51,1.9,1.783-.478-.51-1.9.818-.219,1.164,4.343-.818.219-.56-2.091-1.783.478.56,2.091Z" transform="translate(-246.611 -340.051)" fill="#002581"/>
      </g>
      <g id="Group_1718" data-name="Group 1718" transform="translate(50.183 66.611)">
        <path id="Path_2918" data-name="Path 2918" d="M261.167,339.831l2.015-.9.119.266-2.789,1.242-1.828-4.107,2.751-1.225.119.266-1.977.88.705,1.585,1.876-.836.119.266-1.876.836.768,1.724Z" transform="translate(-258.684 -335.11)" fill="#002581"/>
      </g>
      <g id="Group_1719" data-name="Group 1719" transform="translate(54.308 65.476)">
        <path id="Path_2919" data-name="Path 2919" d="M272.588,334.37l-1.353-1.151.2,1.763,1.149-.612Zm1.987.611-.772.41-.971-.819-1.371.729.168,1.249-.362.189-.551-4.94,3.859,3.182Z" transform="translate(-270.716 -331.799)" fill="#002581"/>
      </g>
      <g id="Group_1720" data-name="Group 1720" transform="translate(56.082 64.159)">
        <path id="Path_2920" data-name="Path 2920" d="M280.64,330.606l-2.171,1.52-2.579-3.683.694-.486,2.372,3.387,1.478-1.035.207.3Z" transform="translate(-275.89 -327.958)" fill="#002581"/>
      </g>
      <g id="Group_1721" data-name="Group 1721" transform="translate(57.57 61.609)">
        <path id="Path_2921" data-name="Path 2921" d="M284.65,324.543l-.679.544-2.831-3.221-.713.571-.2-.224,2.115-1.694.2.223-.724.58,2.831,3.221Z" transform="translate(-280.232 -320.519)" fill="#002581"/>
      </g>
      <g id="Group_1722" data-name="Group 1722" transform="translate(59.896 58.572)">
        <path id="Path_2922" data-name="Path 2922" d="M291.078,317.041l-.625.647-3.438-3.32.625-.648,1.507,1.455,1.363-1.411L289,312.31l.625-.647,3.438,3.32-.625.647-1.655-1.6-1.363,1.411,1.656,1.6Z" transform="translate(-287.014 -311.662)" fill="#002581"/>
      </g>
    </g>
  </g>
</svg>
