<svg xmlns="http://www.w3.org/2000/svg" width="24" height="24" viewBox="0 0 24 24">
  <g id="vuesax_outline_candle-2" data-name="vuesax/outline/candle-2" transform="translate(-428 -254)">
    <g id="candle-2">
      <path id="Vector" d="M7.75,1.5h-7A.755.755,0,0,1,0,.75.755.755,0,0,1,.75,0h7A.755.755,0,0,1,8.5.75.755.755,0,0,1,7.75,1.5Z" transform="translate(442.25 270.75)" fill="#fff"/>
      <path id="Vector-2" data-name="Vector" d="M3.75,1.5h-3A.755.755,0,0,1,0,.75.755.755,0,0,1,.75,0h3A.755.755,0,0,1,4.5.75.755.755,0,0,1,3.75,1.5Z" transform="translate(429.25 270.75)" fill="#fff"/>
      <path id="Vector-3" data-name="Vector" d="M3.75,1.5h-3A.755.755,0,0,1,0,.75.755.755,0,0,1,.75,0h3A.755.755,0,0,1,4.5.75.755.755,0,0,1,3.75,1.5Z" transform="translate(446.25 259.75)" fill="#fff"/>
      <path id="Vector-4" data-name="Vector" d="M7.75,1.5h-7A.755.755,0,0,1,0,.75.755.755,0,0,1,.75,0h7A.755.755,0,0,1,8.5.75.755.755,0,0,1,7.75,1.5Z" transform="translate(429.25 259.75)" fill="#fff"/>
      <path id="Vector-5" data-name="Vector" d="M8.75,7.5h-6A2.529,2.529,0,0,1,0,4.75v-2A2.529,2.529,0,0,1,2.75,0h6A2.529,2.529,0,0,1,11.5,2.75v2A2.529,2.529,0,0,1,8.75,7.5Zm-6-6c-.89,0-1.25.36-1.25,1.25v2C1.5,5.64,1.86,6,2.75,6h6C9.64,6,10,5.64,10,4.75v-2c0-.89-.36-1.25-1.25-1.25Z" transform="translate(432.25 267.75)" fill="#fff"/>
      <path id="Vector-6" data-name="Vector" d="M8.75,7.5h-6A2.529,2.529,0,0,1,0,4.75v-2A2.529,2.529,0,0,1,2.75,0h6A2.529,2.529,0,0,1,11.5,2.75v2A2.529,2.529,0,0,1,8.75,7.5Zm-6-6c-.89,0-1.25.36-1.25,1.25v2C1.5,5.64,1.86,6,2.75,6h6C9.64,6,10,5.64,10,4.75v-2c0-.89-.36-1.25-1.25-1.25Z" transform="translate(436.25 256.75)" fill="#fff"/>
      <path id="Vector-7" data-name="Vector" d="M0,0H24V24H0Z" transform="translate(428 254)" fill="none" opacity="0"/>
    </g>
  </g>
</svg>
