<svg xmlns="http://www.w3.org/2000/svg" width="24" height="24" viewBox="0 0 24 24">
  <g id="vuesax_bold_courthouse" data-name="vuesax/bold/courthouse" transform="translate(-172 -188)">
    <g id="courthouse">
      <path id="Vector" d="M0,0H24V24H0Z" transform="translate(172 188)" fill="none" opacity="0"/>
      <path id="Vector-2" data-name="Vector" d="M20.75,20H19.5V9.751A3.381,3.381,0,0,0,15.75,6H11.5V4.771a7.425,7.425,0,0,0,1.75.22,7.472,7.472,0,0,0,2.78-.54.753.753,0,0,0,.47-.7v-3a.738.738,0,0,0-.33-.62.76.76,0,0,0-.7-.08,5.978,5.978,0,0,1-4.44,0,.76.76,0,0,0-.7.08.738.738,0,0,0-.33.62V6H5.75A3.381,3.381,0,0,0,2,9.751V20H.75a.75.75,0,0,0,0,1.5h20a.75.75,0,0,0,0-1.5ZM5.99,20H3.5V11.5H5.99Zm4,0H7.49V11.5h2.5Zm4,0h-2.5V11.5h2.5ZM18,20H15.49V11.5H18Z" transform="translate(173.25 189.249)" fill="#fff"/>
    </g>
  </g>
</svg>
